<svg width="24" height="24" viewBox="0 0 24 24" fill="none" xmlns="http://www.w3.org/2000/svg">
<g clip-path="url(#clip0_538_32391)">
<path d="M16.81 17.45H8.68C7.86 17.45 7.13 16.9 6.92 16.1L4.76 8.24001C4.76 8.24001 4.76 8.23002 4.76 8.22002L4.16 6.05001C4.08 5.78001 3.84 5.59001 3.55 5.59001H2.6C2.27 5.59001 2 5.32001 2 4.99001C2 4.66001 2.27 4.39001 2.6 4.39001H3.55C4.37 4.39001 5.1 4.94001 5.31 5.73001L5.79 7.47001L19.31 7.44001C19.92 7.44001 20.48 7.74001 20.82 8.24001C21.16 8.74001 21.23 9.38001 21.01 9.94001L18.5 16.29C18.22 16.99 17.55 17.45 16.8 17.45H16.81ZM6.11 8.67001L8.06 15.78C8.14 16.05 8.38 16.24 8.67 16.24H16.8C17.06 16.24 17.29 16.08 17.38 15.84L19.89 9.49001C19.97 9.29001 19.94 9.08001 19.82 8.91001C19.7 8.74001 19.51 8.64002 19.3 8.64002L6.1 8.67001H6.11Z" fill="#7566FF"/>
<path d="M8.38 8.66007C8.12 8.66007 7.87 8.49007 7.8 8.22007L7.44 6.89007C7.28 6.32007 7.36 5.72007 7.65 5.20007C7.94 4.68007 8.42 4.31007 8.99 4.16007L14.3 2.70007C15.49 2.38007 16.71 3.07007 17.03 4.25007L17.92 7.49007C17.96 7.63007 17.99 7.78007 18 7.93007C18.02 8.26007 17.77 8.55007 17.44 8.57007C17.13 8.59007 16.82 8.34007 16.8 8.01007C16.8 7.94007 16.78 7.87007 16.77 7.81007L15.88 4.56007C15.73 4.02007 15.17 3.70007 14.63 3.85007L9.32 5.31007C9.06 5.38007 8.84 5.55007 8.7 5.79007C8.57 6.03007 8.53 6.30007 8.6 6.56007L8.96 7.89007C9.05 8.21007 8.86 8.54007 8.54 8.63007C8.49 8.64007 8.43 8.65007 8.38 8.65007V8.66007Z" fill="#7566FF"/>
<path d="M8.84 21.66C9.80649 21.66 10.59 20.8765 10.59 19.91C10.59 18.9435 9.80649 18.16 8.84 18.16C7.8735 18.16 7.09 18.9435 7.09 19.91C7.09 20.8765 7.8735 21.66 8.84 21.66Z" fill="#7566FF"/>
<path d="M16.74 21.66C17.7065 21.66 18.49 20.8765 18.49 19.91C18.49 18.9435 17.7065 18.16 16.74 18.16C15.7735 18.16 14.99 18.9435 14.99 19.91C14.99 20.8765 15.7735 21.66 16.74 21.66Z" fill="#7566FF"/>
</g>
<defs>
<clipPath id="clip0_538_32391">
<rect width="24" height="24" fill="white"/>
</clipPath>
</defs>
</svg>
