<svg width="14" height="16" viewBox="0 0 14 16" fill="none" xmlns="http://www.w3.org/2000/svg">
<path d="M11.875 1.4C12.205 1.4 12.475 1.67 12.475 2V14C12.475 14.33 12.205 14.6 11.875 14.6H2.125C1.795 14.6 1.525 14.33 1.525 14V2C1.525 1.67 1.795 1.4 2.125 1.4H11.875ZM11.875 0.5H2.125C1.3 0.5 0.625 1.175 0.625 2V14C0.625 14.825 1.3 15.5 2.125 15.5H11.875C12.7 15.5 13.375 14.825 13.375 14V2C13.375 1.175 12.7 0.5 11.875 0.5Z" fill="black"/>
<path d="M3.99998 12.0125C3.70748 12.0125 3.47498 11.78 3.47498 11.4875C3.47498 11.195 3.70748 10.9625 3.99998 10.9625C4.29248 10.9625 4.52497 11.195 4.52497 11.4875C4.52497 11.78 4.29248 12.0125 3.99998 12.0125Z" fill="black"/>
<path d="M3.99998 9.01253C3.70748 9.01253 3.47498 8.78002 3.47498 8.48752C3.47498 8.19502 3.70748 7.96252 3.99998 7.96252C4.29248 7.96252 4.52497 8.19502 4.52497 8.48752C4.52497 8.78002 4.29248 9.01253 3.99998 9.01253Z" fill="black"/>
<path d="M3.99998 6.01253C3.70748 6.01253 3.47498 5.78002 3.47498 5.48752C3.47498 5.19502 3.70748 4.96252 3.99998 4.96252C4.29248 4.96252 4.52497 5.19502 4.52497 5.48752C4.52497 5.78002 4.29248 6.01253 3.99998 6.01253Z" fill="black"/>
<path d="M10.075 11.9375H5.72502C5.47752 11.9375 5.27502 11.735 5.27502 11.4875C5.27502 11.24 5.47752 11.0375 5.72502 11.0375H10.075C10.3225 11.0375 10.525 11.24 10.525 11.4875C10.525 11.735 10.3225 11.9375 10.075 11.9375Z" fill="black"/>
<path d="M10.075 8.93748H5.72502C5.47752 8.93748 5.27502 8.73497 5.27502 8.48748C5.27502 8.23998 5.47752 8.03748 5.72502 8.03748H10.075C10.3225 8.03748 10.525 8.23998 10.525 8.48748C10.525 8.73497 10.3225 8.93748 10.075 8.93748Z" fill="black"/>
<path d="M10.075 5.93748H5.72502C5.47752 5.93748 5.27502 5.73497 5.27502 5.48748C5.27502 5.23998 5.47752 5.03748 5.72502 5.03748H10.075C10.3225 5.03748 10.525 5.23998 10.525 5.48748C10.525 5.73497 10.3225 5.93748 10.075 5.93748Z" fill="black"/>
</svg>
