<svg width="18" height="22" viewBox="0 0 18 22" fill="none" xmlns="http://www.w3.org/2000/svg">
<path d="M17.2483 16.845L16.1633 14.4534V10.93C16.1633 6.69505 13.025 3.38171 9.01166 3.38171C4.99833 3.38171 1.85999 6.69505 1.85999 10.93V14.4534L0.774995 16.845C0.681661 17.0667 0.693328 17.3117 0.821661 17.51C0.949994 17.7084 1.17166 17.8367 1.40499 17.8367H16.6183C16.8517 17.8367 17.0733 17.72 17.2017 17.51C17.33 17.3 17.3533 17.055 17.2483 16.845Z" fill="white"/>
<path d="M7.72833 2.36668H10.26C10.645 2.36668 10.96 2.05167 10.96 1.66667C10.96 1.28167 10.645 0.966675 10.26 0.966675H7.72833C7.34333 0.966675 7.02834 1.28167 7.02834 1.66667C7.02834 2.05167 7.34333 2.36668 7.72833 2.36668Z" fill="white"/>
<path d="M11.0067 19.645L7.29667 18.8167C6.92334 18.735 6.55 18.9683 6.45667 19.3533C6.375 19.7267 6.60834 20.1 6.99334 20.1933L10.7033 21.0217C10.7033 21.0217 10.8083 21.0333 10.855 21.0333C11.17 21.0333 11.4617 20.8117 11.5317 20.485C11.6133 20.1117 11.38 19.7383 10.995 19.645H11.0067Z" fill="white"/>
</svg>
