<svg width="16" height="16" viewBox="0 0 16 16" fill="none" xmlns="http://www.w3.org/2000/svg">
<path d="M8 2.02256C8.8325 2.02256 10.1 4.40756 10.1 8.00006C10.1 11.5926 8.8325 13.9776 8 13.9776C7.1675 13.9776 5.9 11.5926 5.9 8.00006C5.9 4.40756 7.1675 2.02256 8 2.02256ZM8 1.12256C6.3425 1.12256 5 4.19756 5 8.00006C5 11.8026 6.3425 14.8776 8 14.8776C9.6575 14.8776 11 11.8026 11 8.00006C11 4.19756 9.6575 1.12256 8 1.12256Z" fill="black"/>
<path d="M8.00006 5.9C11.5926 5.9 13.9776 7.1675 13.9776 8C13.9776 8.8325 11.5926 10.1 8.00006 10.1C4.40756 10.1 2.02256 8.8325 2.02256 8C2.02256 7.1675 4.40756 5.9 8.00006 5.9ZM8.00006 5C4.20506 5 1.12256 6.3425 1.12256 8C1.12256 9.6575 4.19756 11 8.00006 11C11.8026 11 14.8776 9.6575 14.8776 8C14.8776 6.3425 11.8026 5 8.00006 5Z" fill="black"/>
<path d="M8 1.775C11.435 1.775 14.225 4.565 14.225 8C14.225 11.435 11.435 14.225 8 14.225C4.565 14.225 1.775 11.435 1.775 8C1.775 4.565 4.565 1.775 8 1.775ZM8 0.875C4.0625 0.875 0.875 4.0625 0.875 8C0.875 11.9375 4.0625 15.125 8 15.125C11.9375 15.125 15.125 11.9375 15.125 8C15.125 4.0625 11.9375 0.875 8 0.875Z" fill="black"/>
</svg>
