<svg width="24" height="24" viewBox="0 0 24 24" fill="none" xmlns="http://www.w3.org/2000/svg">
<g clip-path="url(#clip0_2_3735)">
<path d="M19.35 6.55005H4.65C4.29101 6.55005 4 6.84106 4 7.20005V7.30005C4 7.65903 4.29101 7.95005 4.65 7.95005H19.35C19.709 7.95005 20 7.65903 20 7.30005V7.20005C20 6.84106 19.709 6.55005 19.35 6.55005Z" fill="black"/>
<path d="M19.35 11.3H4.65C4.29101 11.3 4 11.5911 4 11.95V12.05C4 12.409 4.29101 12.7 4.65 12.7H19.35C19.709 12.7 20 12.409 20 12.05V11.95C20 11.5911 19.709 11.3 19.35 11.3Z" fill="black"/>
<path d="M19.35 16.05H4.65C4.29101 16.05 4 16.3411 4 16.7001V16.8C4 17.159 4.29101 17.4501 4.65 17.4501H19.35C19.709 17.4501 20 17.159 20 16.8V16.7001C20 16.3411 19.709 16.05 19.35 16.05Z" fill="black"/>
</g>
<defs>
<clipPath id="clip0_2_3735">
<rect width="24" height="24" fill="white"/>
</clipPath>
</defs>
</svg>
