<svg width="92" height="16" viewBox="0 0 92 16" fill="none" xmlns="http://www.w3.org/2000/svg">
<path d="M91.7997 7.82146V9.12379H85.2462C85.4225 10.4261 86.2877 11.0308 87.2812 11.0308C88.2426 11.0308 89.0117 10.6432 89.3482 9.85247L91.6395 10.5036C91.0947 12.2401 89.3962 13.1703 87.2812 13.1703C84.8136 13.1703 82.7787 11.6509 82.7787 8.64317V7.80595C82.7787 4.8137 84.8136 3.29431 87.2812 3.29431C89.7648 3.29431 91.7997 4.8137 91.7997 7.82146ZM85.2783 7.13928H89.3321C89.3321 6.22455 88.4028 5.43385 87.2812 5.43385C86.3358 5.43385 85.5186 5.97649 85.2783 7.13928Z" fill="#7566FF"/>
<path d="M78.7171 4.56563L78.8133 3.52687H81.1687V11.6354C81.1687 14.5347 78.9575 15.806 76.4899 15.806C74.5511 15.806 72.8366 15.1703 72.1797 13.806L74.7915 12.8757C75.0639 13.4804 75.7208 13.806 76.4899 13.806C77.8519 13.806 78.6531 13.0618 78.6531 11.5269V11.1083C77.9 11.8835 76.8745 12.3176 75.8009 12.3176C73.9102 12.3176 71.9073 10.7207 71.9073 8.19355V7.43386C71.9073 4.87571 73.9102 3.29431 75.8009 3.29431C76.9065 3.29431 77.9641 3.74393 78.7171 4.56563ZM76.554 10.2091C77.6917 10.2091 78.6531 9.48038 78.6531 8.11603V7.49587C78.6531 6.14703 77.6917 5.40284 76.554 5.40284C75.3843 5.40284 74.4229 6.14703 74.4229 7.49587V8.11603C74.4229 9.48038 75.3843 10.2091 76.554 10.2091Z" fill="#7566FF"/>
<path d="M71.5936 12.9379H69.0299L67.7801 9.40306H63.1013L61.8515 12.9379H59.2878L63.8704 0.193726H67.0109L71.5936 12.9379ZM65.4407 2.81389L63.8864 7.217H66.9949L65.4407 2.81389Z" fill="#7566FF"/>
<path d="M55.049 3.29431C56.9397 3.29431 58.3338 4.78269 58.3338 7.29432V12.9378H55.8181V7.24781C55.8181 5.80595 55.049 5.49587 54.2318 5.49587C53.4146 5.49587 52.7096 6.023 52.7096 7.1858V7.29432V12.9378H50.2741V7.24781C50.2741 5.77494 49.505 5.46486 48.7038 5.46486C47.8866 5.46486 47.1816 5.85246 47.1816 7.1858V12.9378H44.666V3.52687H47.0214L47.1175 4.59664C47.6142 3.86796 48.3994 3.29431 49.505 3.29431C50.6747 3.29431 51.62 3.85245 52.1648 4.87571C52.7256 3.97648 53.7351 3.29431 55.049 3.29431Z" fill="#7566FF"/>
<path d="M38.7564 3.29431C41.0317 3.29431 42.8263 4.62765 42.8263 6.95324V12.9378H40.5029L40.3908 11.806C39.8941 12.6742 38.9967 13.1703 37.8431 13.1703H37.2502C35.5518 13.1703 34.2058 11.9145 34.2058 10.085C34.2058 8.42611 35.4076 7.17029 37.7469 7.17029H40.3427V7.03076C40.3427 6.20905 39.7979 5.51137 38.5801 5.51137C37.763 5.51137 37.1701 5.86796 36.8016 6.51913L34.5583 5.6044C35.3114 4.30207 36.8817 3.29431 38.7564 3.29431ZM37.795 10.9377H38.4039C39.3012 10.9377 40.1664 10.4881 40.3427 9.65092V9.23231H37.795C37.1381 9.23231 36.6894 9.5579 36.6894 10.1005C36.6894 10.6277 37.1381 10.9377 37.795 10.9377Z" fill="#7566FF"/>
<path d="M33.1554 7.82146V9.12379H26.6019C26.7781 10.4261 27.6434 11.0308 28.6368 11.0308C29.5982 11.0308 30.3673 10.6432 30.7038 9.85247L32.9951 10.5036C32.4504 12.2401 30.7519 13.1703 28.6368 13.1703C26.1693 13.1703 24.1343 11.6509 24.1343 8.64317V7.80595C24.1343 4.8137 26.1693 3.29431 28.6368 3.29431C31.1204 3.29431 33.1554 4.8137 33.1554 7.82146ZM26.6339 7.13928H30.6878C30.6878 6.22455 29.7585 5.43385 28.6368 5.43385C27.6915 5.43385 26.8743 5.97649 26.6339 7.13928Z" fill="#7566FF"/>
<path d="M22.6633 3.29431C23.0639 3.29431 23.5927 3.37183 23.8971 3.51137L23.3042 5.69742C22.9517 5.57339 22.5351 5.51137 22.1986 5.51137C21.4295 5.51137 20.404 5.85246 20.404 7.1858V12.9378H17.8884V3.52687H20.2438L20.3399 4.62765C20.8367 3.79044 21.5577 3.29431 22.6633 3.29431Z" fill="#7566FF"/>
<path d="M10.213 0.193726C13.61 0.193726 16.2057 2.20924 16.2057 5.80615V7.32553C16.2057 10.9379 13.61 12.9379 10.213 12.9379H5.37402V0.193726H10.213ZM13.6901 7.24801V5.88367C13.6901 3.49606 12.2159 2.41079 10.213 2.41079H7.88967V10.7209H10.213C12.2159 10.7209 13.6901 9.65112 13.6901 7.24801Z" fill="#7566FF"/>
<path d="M1.7065 4.39533C0.873292 4.39533 0.200317 3.74416 0.200317 2.93796C0.200317 2.13176 0.873292 1.48059 1.7065 1.48059C2.53971 1.48059 3.21268 2.13176 3.21268 2.93796C3.21268 3.74416 2.53971 4.39533 1.7065 4.39533ZM1.7065 11.6667C0.873292 11.6667 0.200317 11.0155 0.200317 10.2093C0.200317 9.40309 0.873292 8.75193 1.7065 8.75193C2.53971 8.75193 3.21268 9.40309 3.21268 10.2093C3.21268 11.0155 2.53971 11.6667 1.7065 11.6667Z" fill="#7566FF"/>
<path fill-rule="evenodd" clip-rule="evenodd" d="M91.7997 7.82165C91.7997 4.81389 89.7648 3.29451 87.2812 3.29451C84.8136 3.29451 82.7786 4.81389 82.7786 7.80615V8.64336C82.7786 11.6511 84.8136 13.1705 87.2812 13.1705C89.3202 13.1705 90.9721 12.3059 91.5763 10.6879C91.5988 10.6276 91.6199 10.5662 91.6395 10.5038L89.3481 9.85267C89.0117 10.6434 88.2425 11.031 87.2812 11.031C86.3384 11.031 85.511 10.4864 85.2785 9.31778C85.266 9.25499 85.2552 9.19039 85.2462 9.12398H91.7997V7.82165ZM85.4827 9.31778H92V7.82165C92 6.27357 91.475 5.08796 90.61 4.28991C89.747 3.49365 88.5645 3.10071 87.2812 3.10071C86.0055 3.10071 84.8272 3.49382 83.9663 4.28797C83.1036 5.08391 82.5783 6.26554 82.5783 7.80615V8.64336C82.5783 10.1914 83.1034 11.3769 83.9662 12.1749C84.827 12.9712 86.0055 13.3643 87.2812 13.3643C89.4536 13.3643 91.2528 12.4036 91.8311 10.5601L91.8898 10.373L89.2316 9.61756L89.1629 9.77888C88.8656 10.4775 88.1856 10.8372 87.2812 10.8372C86.827 10.8372 86.4119 10.6995 86.0908 10.4214C85.8097 10.178 85.5889 9.81661 85.4827 9.31778ZM85.2783 7.13948C85.292 7.07285 85.3077 7.00825 85.3252 6.94568C85.6127 5.91628 86.39 5.43405 87.2812 5.43405C88.3227 5.43405 89.1984 6.11587 89.3182 6.94568C89.3274 7.00949 89.3321 7.07417 89.3321 7.13948H85.2783ZM85.5332 6.94568H89.1153C88.9952 6.24079 88.2338 5.62785 87.2812 5.62785C86.8486 5.62785 86.4547 5.75155 86.1427 6.00029C85.8773 6.21183 85.6611 6.52187 85.5332 6.94568Z" fill="#7566FF"/>
<path fill-rule="evenodd" clip-rule="evenodd" d="M78.7171 4.56583C78.6577 4.50102 78.5964 4.43853 78.5334 4.37839C77.7969 3.676 76.8193 3.29451 75.8009 3.29451C73.9102 3.29451 71.9073 4.87591 71.9073 7.43405V8.19375C71.9073 10.7209 73.9102 12.3178 75.8009 12.3178C76.7821 12.3178 77.7231 11.9552 78.4527 11.3009C78.5214 11.2394 78.5882 11.1752 78.653 11.1085V11.5271C78.653 13.062 77.8519 13.8062 76.4899 13.8062C75.7208 13.8062 75.0639 13.4806 74.7915 12.876C74.7915 12.876 74.7915 12.876 74.7915 12.876L72.1797 13.8062C72.2082 13.8655 72.2388 13.9235 72.2713 13.98C72.9862 15.2246 74.6354 15.8062 76.4899 15.8062C78.9575 15.8062 81.1687 14.5349 81.1687 11.6356V3.52707H78.8133L78.7171 4.56583ZM78.5562 4.1323C77.7971 3.46298 76.8182 3.10071 75.8009 3.10071C73.799 3.10071 71.707 4.76937 71.707 7.43405V8.19375C71.707 10.8274 73.799 12.5116 75.8009 12.5116C76.7736 12.5116 77.7076 12.1729 78.4526 11.5601C78.4469 12.2795 78.2556 12.7837 77.9369 13.1088C77.6149 13.4373 77.1337 13.6124 76.4899 13.6124C75.7747 13.6124 75.2065 13.3122 74.975 12.7985L74.8996 12.6309L71.9062 13.6971L71.9981 13.888C72.7048 15.3557 74.5233 16 76.4899 16C77.7564 16 78.9751 15.674 79.8813 14.9582C80.7934 14.2378 81.369 13.1379 81.369 11.6356V3.33327H78.6301L78.5562 4.1323ZM78.653 8.11623C78.653 9.48057 77.6916 10.2093 76.554 10.2093C75.3843 10.2093 74.4229 9.48057 74.4229 8.11623V7.49607C74.4229 6.14723 75.3843 5.40304 76.554 5.40304C77.6916 5.40304 78.653 6.14723 78.653 7.49607V8.11623ZM77.892 9.53407C78.2301 9.2223 78.4527 8.75206 78.4527 8.11623V7.49607C78.4527 6.8685 78.2304 6.39783 77.8916 6.08368C77.5509 5.76788 77.078 5.59684 76.554 5.59684C76.0127 5.59684 75.5317 5.7687 75.1876 6.08437C74.8454 6.39832 74.6232 6.86855 74.6232 7.49607V8.11623C74.6232 8.75201 74.8458 9.22181 75.1872 9.53338C75.5308 9.84683 76.0116 10.0155 76.554 10.0155C77.0791 10.0155 77.5519 9.84763 77.892 9.53407Z" fill="#7566FF"/>
<path fill-rule="evenodd" clip-rule="evenodd" d="M71.8753 13.1318H68.8867L67.6369 9.59693H63.2444L61.9946 13.1318H59.006L63.728 0H67.1533L71.8753 13.1318ZM63.1013 9.40313H67.78L69.0299 12.938H71.5936L67.0109 0.193799H63.8704L59.2877 12.938H61.8514L63.1013 9.40313ZM63.8864 7.21708H66.9949L65.4407 2.81396L63.8864 7.21708ZM65.4406 3.41356L64.1665 7.02328H66.7148L65.4406 3.41356Z" fill="#7566FF"/>
<path fill-rule="evenodd" clip-rule="evenodd" d="M58.3337 7.29452C58.3337 4.78288 56.9397 3.29451 55.049 3.29451C53.8272 3.29451 52.8686 3.88438 52.2893 4.69015C52.2456 4.75089 52.2041 4.81287 52.1648 4.87591C52.1294 4.80943 52.0923 4.74491 52.0536 4.68239C51.4962 3.78248 50.5986 3.29451 49.5049 3.29451C48.5242 3.29451 47.7957 3.74586 47.2969 4.35641C47.2334 4.43417 47.1736 4.51451 47.1175 4.59684L47.0213 3.52707H44.6659V12.9379H47.1816V7.18599C47.1816 5.85265 47.8866 5.46506 48.7038 5.46506C49.5049 5.46506 50.2741 5.77513 50.2741 7.24801V12.9379H52.7096V7.18599C52.7096 6.0232 53.4146 5.49606 54.2318 5.49606C55.049 5.49606 55.8181 5.80614 55.8181 7.24801V12.9379H58.3337V7.29452ZM47.2724 4.08335L47.205 3.33327H44.4656V13.1317H47.3819V7.18599C47.3819 6.55035 47.5496 6.17865 47.7763 5.96405C48.0038 5.74867 48.3251 5.65886 48.7038 5.65886C49.0826 5.65886 49.4147 5.73292 49.6534 5.9465C49.8895 6.15777 50.0738 6.54148 50.0738 7.24801V13.1317H52.9099V7.18599C52.9099 6.64288 53.0737 6.27315 53.3079 6.04006C53.5424 5.80657 53.8678 5.68986 54.2318 5.68986C54.6194 5.68986 54.9562 5.76427 55.197 5.97505C55.4342 6.1827 55.6178 6.55812 55.6178 7.24801V13.1317H58.534V7.29452C58.534 6.00529 58.1761 4.9581 57.5549 4.22933C56.9311 3.49766 56.0528 3.10071 55.049 3.10071C53.7909 3.10071 52.7952 3.69259 52.1777 4.50794C51.5814 3.59792 50.6393 3.10071 49.5049 3.10071C48.5352 3.10071 47.7963 3.51367 47.2724 4.08335Z" fill="#7566FF"/>
<path fill-rule="evenodd" clip-rule="evenodd" d="M42.8263 6.95343C42.8263 4.62784 41.0317 3.29451 38.7564 3.29451C36.9633 3.29451 35.4487 4.21644 34.6612 5.43626C34.6254 5.49178 34.5911 5.5479 34.5583 5.60459L36.8015 6.51932C37.1701 5.86816 37.7629 5.51157 38.5801 5.51157C39.771 5.51157 40.3183 6.17876 40.3419 6.97669C40.3424 6.99471 40.3427 7.0128 40.3427 7.03095V7.17049H37.7469C35.4075 7.17049 34.2058 8.42631 34.2058 10.0852C34.2058 11.9147 35.5517 13.1705 37.2502 13.1705H37.8431C38.8722 13.1705 39.6973 12.7757 40.2161 12.0741C40.2789 11.9892 40.3371 11.8999 40.3907 11.8062L40.5029 12.9379H42.8263V6.95343ZM40.244 12.3557L40.3209 13.1317H43.0266V6.95343C43.0266 5.73876 42.556 4.76965 41.7769 4.10637C41.0007 3.44568 39.9333 3.10071 38.7564 3.10071C36.8073 3.10071 35.1711 4.14797 34.3835 5.50996L34.2742 5.69904L36.8904 6.76585L36.9772 6.61241C37.3108 6.02294 37.8366 5.70537 38.5801 5.70537C39.1489 5.70537 39.5342 5.86742 39.7769 6.10063C40.0085 6.32311 40.1301 6.62935 40.1415 6.97669H37.7469C36.5409 6.97669 35.603 7.30079 34.9644 7.86234C34.3242 8.42525 34.0055 9.20882 34.0055 10.0852C34.0055 12.0177 35.437 13.3643 37.2502 13.3643H37.8431C38.8476 13.3643 39.6819 13.0056 40.244 12.3557ZM38.4039 10.9379H37.795C37.138 10.9379 36.6894 10.6279 36.6894 10.1007C36.6894 9.55809 37.138 9.23251 37.795 9.23251H40.3427V9.65112C40.1664 10.4883 39.3012 10.9379 38.4039 10.9379ZM40.1424 9.63087C39.9836 10.3316 39.2412 10.7441 38.4039 10.7441H37.795C37.4964 10.7441 37.267 10.6734 37.1173 10.5629C36.9735 10.4568 36.8897 10.3049 36.8897 10.1007C36.8897 9.88642 36.9756 9.72608 37.1204 9.61492C37.2701 9.49994 37.4984 9.42631 37.795 9.42631H40.1424V9.63087Z" fill="#7566FF"/>
<path fill-rule="evenodd" clip-rule="evenodd" d="M33.1554 7.82165C33.1554 4.81389 31.1205 3.29451 28.6369 3.29451C26.1693 3.29451 24.1343 4.81389 24.1343 7.80615V8.64336C24.1343 11.6511 26.1693 13.1705 28.6369 13.1705C30.6759 13.1705 32.3278 12.3059 32.932 10.6879C32.9545 10.6276 32.9756 10.5662 32.9952 10.5038L30.7039 9.85267C30.3674 10.6434 29.5983 11.031 28.6369 11.031C27.6941 11.031 26.8667 10.4864 26.6342 9.31778C26.6217 9.25499 26.6109 9.19039 26.6019 9.12398H33.1554V7.82165ZM26.8384 9.31778H33.3557V7.82165C33.3557 6.27357 32.8307 5.08796 31.9657 4.28991C31.1027 3.49365 29.9202 3.10071 28.6369 3.10071C27.3612 3.10071 26.1829 3.49382 25.3221 4.28797C24.4593 5.08391 23.9341 6.26554 23.9341 7.80615V8.64336C23.9341 10.1914 24.4591 11.3769 25.3219 12.1749C26.1828 12.9712 27.3612 13.3643 28.6369 13.3643C30.8093 13.3643 32.6085 12.4036 33.1868 10.5601L33.2455 10.373L30.5873 9.61756L30.5187 9.77888C30.2214 10.4775 29.5413 10.8372 28.6369 10.8372C28.1827 10.8372 27.7676 10.6995 27.4465 10.4214C27.1654 10.178 26.9446 9.81661 26.8384 9.31778ZM26.634 7.13948C26.6477 7.07285 26.6634 7.00825 26.6809 6.94568C26.9684 5.91628 27.7457 5.43405 28.6369 5.43405C29.6784 5.43405 30.5541 6.11587 30.6739 6.94568C30.6831 7.00949 30.6878 7.07417 30.6878 7.13948H26.634ZM26.8889 6.94568H30.471C30.3509 6.24079 29.5895 5.62785 28.6369 5.62785C28.2043 5.62785 27.8104 5.75155 27.4984 6.00029C27.233 6.21183 27.0168 6.52187 26.8889 6.94568Z" fill="#7566FF"/>
<path fill-rule="evenodd" clip-rule="evenodd" d="M23.8971 3.51156C23.5927 3.37203 23.0639 3.29451 22.6633 3.29451C21.6827 3.29451 21.0047 3.68476 20.5173 4.35712C20.4552 4.44285 20.3961 4.53316 20.34 4.62784L20.2438 3.52707H17.8884V12.9379H20.404V7.18599C20.404 5.85265 21.4295 5.51157 22.1986 5.51157C22.476 5.51157 22.8079 5.55371 23.1133 5.638C23.1784 5.65596 23.2423 5.67583 23.3042 5.69761L23.8971 3.51156ZM20.492 4.06763L20.4279 3.33327H17.6881V13.1317H20.6043V7.18599C20.6043 6.5742 20.8358 6.2163 21.1319 6.00466C21.4382 5.78577 21.8395 5.70537 22.1986 5.70537C22.5139 5.70537 22.9071 5.76409 23.2358 5.87975L23.4422 5.95238L24.133 3.40524L23.9828 3.33642C23.6406 3.17955 23.0783 3.10071 22.6633 3.10071C22.0781 3.10071 21.5838 3.23248 21.1676 3.48259C20.9099 3.63747 20.6866 3.83497 20.492 4.06763Z" fill="#7566FF"/>
<path fill-rule="evenodd" clip-rule="evenodd" d="M5.17377 13.1318V0H10.2131C11.9517 0 13.5014 0.516094 14.6187 1.5084C15.7383 2.50279 16.406 3.96002 16.406 5.80622V7.3256C16.406 9.17936 15.7384 10.6368 14.6185 11.6294C13.5011 12.6198 11.9513 13.1318 10.2131 13.1318H5.17377ZM13.4898 7.24808V5.88374C13.4898 4.72923 13.1345 3.91702 12.5646 3.39235C11.9928 2.86593 11.1786 2.60466 10.2131 2.60466H8.08999V10.5272H10.2131C11.1793 10.5272 11.9934 10.2694 12.5649 9.74506C13.1343 9.22257 13.4898 8.41066 13.4898 7.24808ZM7.8897 10.721V2.41086H10.2131C12.216 2.41086 13.6901 3.49613 13.6901 5.88374V7.24808C13.6901 9.65119 12.216 10.721 10.2131 10.721H7.8897ZM16.2057 5.80622C16.2057 2.20931 13.61 0.193799 10.2131 0.193799H5.37406V12.938H10.2131C13.61 12.938 16.2057 10.938 16.2057 7.3256V5.80622Z" fill="#7566FF"/>
<path fill-rule="evenodd" clip-rule="evenodd" d="M0.20029 2.93815C0.20029 3.74436 0.873265 4.39552 1.70647 4.39552C2.53968 4.39552 3.21265 3.74436 3.21265 2.93815C3.21265 2.13195 2.53968 1.48079 1.70647 1.48079C0.873265 1.48079 0.20029 2.13195 0.20029 2.93815ZM0.20029 10.2095C0.20029 11.0157 0.873265 11.6669 1.70647 11.6669C2.53968 11.6669 3.21265 11.0157 3.21265 10.2095C3.21265 9.40329 2.53968 8.75213 1.70647 8.75213C0.873265 8.75213 0.20029 9.40329 0.20029 10.2095ZM1.70647 4.58932C0.762648 4.58932 0 3.85139 0 2.93815C0 2.02492 0.762648 1.28699 1.70647 1.28699C2.6503 1.28699 3.41294 2.02492 3.41294 2.93815C3.41294 3.85139 2.6503 4.58932 1.70647 4.58932ZM1.70647 11.8607C0.762648 11.8607 0 11.1227 0 10.2095C0 9.29626 0.762648 8.55833 1.70647 8.55833C2.6503 8.55833 3.41294 9.29626 3.41294 10.2095C3.41294 11.1227 2.6503 11.8607 1.70647 11.8607Z" fill="#7566FF"/>
</svg>
